<?xml version="1.0" encoding="UTF-8"?>
<svg width="62px" height="59px" viewBox="0 0 62 59" version="1.1" xmlns="http://www.w3.org/2000/svg" xmlns:xlink="http://www.w3.org/1999/xlink">
    <!-- Generator: Sketch 52 (66869) - http://www.bohemiancoding.com/sketch -->
    <title>dev.orkin.drivedigitaldev.com-261881663062578</title>
    <desc>Created with Sketch.</desc>
    <g id="Component-Pages" stroke="none" stroke-width="1" fill="none" fill-rule="evenodd">
        <g id="dev.orkin.drivedigitaldev.com-261881663062578" transform="translate(-1.000000, 0.000000)" fill="#CC092F">
            <path d="M62.7,30.8 C62.7,30.8 61.1,29.2 58.5,29.2 C57.1554722,29.2046662 55.8391126,29.5857176 54.7,30.3 L54.7,29.5 L54.6,25.7 L54.9,25.7 C55.9,25.7 57.4,25.4 58.9,24 C61.8,21.1 60.4,18.2 60.3,18.1 C60.199787,17.8780031 60.0219969,17.700213 59.8,17.6 C59.8,17.6 59,17.2 57.8,17.2 C56.8,17.2 55.4,17.5 53.8,19 C53.659515,19.1608173 53.5260568,19.3276401 53.4,19.5 C52.9,18 52.4,16.6 51.8,15.5 C53.2623657,14.9316073 54.373137,13.7097589 54.8,12.2 C56.1,8.7 53.8,6.8 53.6,6.7 C53.4269038,6.57017787 53.2163702,6.5 53,6.5 C52.6,6.5 49.8,6.6 48.5,10 L48.5,10.3 C47.7048885,9.39531143 46.8351621,8.55903597 45.9,7.8 C46.6,7.1 47.2,5.9 47.1,4.1 C46.8,0.7 44.1,0.1 43.9,0.1 C43.7047147,0.0385856019 43.4952853,0.0385856019 43.3,0.1 C43.2,0.1 40.6,1.3 40.9,4.6 C40.4441154,4.40455948 39.9765518,4.23757247 39.5,4.1 C38.9767535,3.97205258 38.4461827,4.28155225 38.3,4.8 C38.2072572,5.06511308 38.2302802,5.35700687 38.3634391,5.60430201 C38.496598,5.85159715 38.727616,6.0314937 39,6.1 L40.6,6.7 C40.2518311,6.83517921 39.9170447,7.00257241 39.6,7.2 C36.9,9.2 37.6,11.8 37.6,11.9 C37.6540725,12.1427868 37.7966863,12.3567074 38,12.5 C38.1,12.5 39,13.2 40.4,13.2 C41.4,13.2 42.4,12.8 43.2,12.2 C44.3,11.4 44.9,10.6 45.2,9.8 C45.9182926,10.4846858 46.5866664,11.2198969 47.2,12 L45.9,12.1 C42.2,12.7 41.7,15.7 41.7,15.9 C41.6385856,16.0952853 41.6385856,16.3047147 41.7,16.5 C41.8,16.5 43,18.7 46,18.7 L47,18.7 C48.5,18.3 49.5,17.7 50.1,17 C50.6,18 51.1,19.2 51.4,20.4 C50.4643869,19.9467898 49.4395733,19.7076667 48.4,19.7 C46.7911217,19.6680539 45.2652001,20.4124058 44.3,21.7 C44.1701779,21.8730962 44.1,22.0836298 44.1,22.3 C44.1,22.5 44.4,25.7 48.3,26.8 L50,27 C51,27 51.8,26.7 52.4,26.4 L52.6,29.4 L52.6,29.5 C52.4087017,29.3231601 52.2084373,29.1562731 52,29 C50.8958502,28.0261911 49.4722064,27.4923247 48,27.5 C47.1623712,27.4958092 46.3371121,27.7021239 45.6,28.1 C45.3780031,28.200213 45.200213,28.3780031 45.1,28.6 C45.1,28.7 43.9,31.9 47.1,34.6 C48.330294,35.6968717 49.9576417,36.239321 51.6,36.1 C51.1399203,37.4919846 50.5366924,38.8324911 49.8,40.1 C49.8,39.7 49.6,39.3 49.4,38.9 C48.4905688,36.7069127 46.3735045,35.2563317 44,35.2 L43.6,35.2 C43.3836298,35.2 43.1730962,35.2701779 43,35.4 C43,35.6 40.3,38.1 42.2,42.1 C43.2,44.1 44.6,45.1 45.7,45.5 C44.7,46.5 43.5,47.5 42.4,48.3 L42.6,46.8 C42.6,42.1 38.9,40.8 38.7,40.8 C38.5047147,40.7385856 38.2952853,40.7385856 38.1,40.8 C37.9,40.8 34.3,42.1 34.3,46.8 C34.3,49.4 35.3,51 36.3,51.8 C34.8,52.6 33.7,52.9 33.7,52.9 C33.1477153,52.9828427 32.7671573,53.4977153 32.85,54.05 C32.9328427,54.6022847 33.4477153,54.9828427 34,54.9 L34.3,54.9 C34.3,54.9 35.6,54.5 37.4,53.6 C37.7,54.9 38.5,56.6 40.8,58 C42,58.6 43.2,59 44.4,59 C46.6,59 47.9,57.9 48,57.8 L48.4,57.2 C48.4,57 49.1,53.3 45,50.9 C44.4304701,50.5948326 43.8260668,50.3597869 43.2,50.2 C44.7,49.2 46.2,48 47.5,46.5 C48.5902746,48.0864879 50.3755567,49.0535157 52.3,49.1 L53,49.1 C57,49.1 58.3,46.1 58.4,46.1 C58.4843337,45.8742869 58.4843337,45.6257131 58.4,45.4 C58.4,45.3 57.5,41.8 53,41.4 C52.5011611,41.3518114 51.9988389,41.3518114 51.5,41.4 C52.3947273,39.8219793 53.099626,38.1436491 53.6,36.4 C54.3,36.7 55.2,37 56.2,37 C57.0172163,37.0077896 57.8294839,36.8724116 58.6,36.6 C62.6,35.2 62.9,31.8 62.9,31.6 C62.9246874,31.3018853 62.8146207,31.0083741 62.6,30.8 L62.7,30.8 Z M42.1,10.5 C41.6082484,10.8695589 41.0147789,11.0790187 40.4,11.1 L39.6,11 C39.6,10.5 39.8,9.6 40.9,8.9 C41.7,8.3 42.5,8.2 43.2,8.4 L43.3,8.4 C43.3,8.9 43.2,9.8 42.1,10.5 Z M44.3,6.5 C44.0375577,6.32666775 43.7708071,6.15994861 43.5,6 C43.2,5.6 43,5.1 43,4.5 C42.8,3.1 43.4,2.5 43.8,2.2 C44.2,2.4 44.8,3 45,4.3 C45.1,5.5 44.7,6.2 44.3,6.5 Z M46.7,16.6 L46,16.6 C44.8,16.6 44.2,16.2 43.8,15.8 C44.1,15.3 44.7,14.4 46.3,14.1 C47.4,13.9 48.3,14.1 49,14.7 L49.1,14.8 L49.1,14.9 C49,15.4 48.4,16.3 46.7,16.6 Z M50.8,13.6 C50.6385259,13.3301229 50.4718278,13.063406 50.3,12.8 C50.1,12.2 50.1,11.5 50.4,10.7 C51,9.1 52,8.7 52.6,8.6 C52.9,9 53.4,10 52.9,11.6 C52.3,13 51.4,13.5 50.9,13.6 L50.8,13.6 Z M50.1,25 L48.9,24.8 C47.1,24.3 46.5,23.2 46.3,22.6 C46.7,22.3 47.4,21.8 48.5,21.8 L49.7,21.9 C51.3,22.3 51.9,23.2 52.2,23.9 L52.2,24.1 C51.6708154,24.6416674 50.9563621,24.9631714 50.2,25 L50.1,25 Z M39,50.5 L38.9,50.6 L38.5,50.8 C37.9,50.5 36.5,49.4 36.5,46.8 C36.5,44.3 37.9,43.2 38.5,42.8 C39.2,43.2 40.5,44.3 40.5,46.8 C40.5,48.8 39.7,49.9 39,50.5 Z M44,52.7 C46.3,54 46.5,55.7 46.5,56.4 C45.8982138,56.7735466 45.2080307,56.9806016 44.5,57 C43.7,57 42.8,56.7 42,56.2 C39.8,55 39.5,53.4 39.5,52.6 C39.768539,52.436348 40.0352227,52.2696707 40.3,52.1 C41.5,51.8 42.8,52 44,52.7 Z M47.7,43.4 C47.6009323,43.53403 47.5009299,43.6673666 47.4,43.8 C46.6,43.7 45.1,43.3 44.2,41.3 C43.2,39.2 43.9,37.8 44.3,37.2 C45.1,37.2 46.6,37.7 47.6,39.7 C48.4,41.4 48.1,42.7 47.6,43.4 L47.7,43.4 Z M52.9,43.4 C55.2,43.6 56.1,44.9 56.4,45.5 C56.1,46.1 55.1,47.1 53.1,47.1 L52.6,47.1 C50.3,46.9 49.4,45.6 49.1,44.9 L49.5,44.4 C50.1,43.8 51.2,43.2 52.9,43.4 Z M52.2,33.9 L51.2,34.1 C50.2415096,34.0889642 49.3188519,33.7340959 48.6,33.1 C47,31.7 47,30.3 47,29.7 C47.3209563,29.5819197 47.6583171,29.5144475 48,29.5 C48.9584904,29.5110358 49.8811481,29.8659041 50.6,30.5 C52,31.6 52.2,32.8 52.2,33.5 L52.2,33.9 Z M55.3,20.4 C56.1,19.7 57,19.3 57.9,19.3 L58.6,19.3 C58.7,20 58.8,21.3 57.5,22.5 C56.7,23.3 55.8,23.7 54.9,23.7 L54.3,23.7 L54.1,22.7 C54.1,22.1 54.5,21.3 55.3,20.4 Z M58,34.7 C57.5,34.9 57,35 56.4,35 C55.4,35 54.7,34.6 54.4,34.3 L54.4,33.8 C54.7,33 55.4,32.1 56.9,31.6 L58.6,31.3 C59.6,31.3 60.5,31.6 60.9,31.9 C60.7,32.7 59.9,34 58,34.7 Z" id="Shape"></path>
            <path d="M30.2,53 L27.5,51.8 C28.5,51 29.6,49.4 29.6,46.8 C29.6,42.1 26,40.8 25.8,40.8 C25.5742869,40.7156663 25.3257131,40.7156663 25.1,40.8 C25,40.8 21.3,42.1 21.3,46.8 L21.5,48.3 C20.4,47.5 19.3,46.5 18.2,45.5 C19.7823522,44.8927035 21.0471029,43.6640885 21.7,42.1 C23.6,38.1 21,35.6 20.9,35.4 C20.7269038,35.2701779 20.5163702,35.2 20.3,35.2 L19.9,35.2 C17.5264955,35.2563317 15.4094312,36.7069127 14.5,38.9 L14.1,40.1 C13.3633076,38.8324911 12.7600797,37.4919846 12.3,36.1 L12.8,36.1 C14.2722064,36.1076753 15.6958502,35.5738089 16.8,34.6 C20,31.9 18.8,28.7 18.8,28.6 C18.699787,28.3780031 18.5219969,28.200213 18.3,28.1 C17.5332112,27.6855071 16.6713865,27.4786691 15.8,27.5 C14.3968674,27.5400996 13.0522062,28.0708869 12,29 C11.7914518,29.1561328 11.5911803,29.3230257 11.4,29.5 L11.5,26.5 C12.2,26.7 13,27 14,27 C14.5,27 15.1,27 15.7,26.8 C19.7,25.8 19.9,22.5 19.9,22.3 C19.9,22.0836298 19.8298221,21.8730962 19.7,21.7 C19.7,21.7 18.4,19.7 15.6,19.7 C14.559618,19.7007649 13.5332838,19.9402429 12.6,20.4 C12.9,19.2 13.3,18 13.8,17 C14.4,17.7 15.4,18.3 17,18.6 L18.1,18.7 C21.1,18.7 22.3,16.6 22.3,16.5 C22.394828,16.315236 22.4297787,16.1055318 22.4,15.9 C22.4,15.7 21.9,12.8 18.2,12.1 L16.8,12.1 C17.4397656,11.2804316 18.1418518,10.51148 18.9,9.8 C19.2,10.6 19.8,11.4 20.9,12.2 C21.7103414,12.8095416 22.6868588,13.1582979 23.7,13.2 C25.1,13.2 26,12.5 26.1,12.5 L26.4,11.9 C26.4,11.9 27.2,9.2 24.4,7.2 C24.11488,7.00785456 23.8137718,6.8405722 23.5,6.7 L25.1,6.1 C25.7,5.9 26,5.3 25.8,4.8 C25.6538173,4.28155225 25.1232465,3.97205258 24.6,4.1 L23.2,4.6 C23.4226277,2.71815618 22.4154065,0.905158124 20.7,0.1 C20.5047147,0.0385856019 20.2952853,0.0385856019 20.1,0.1 C20,0.1 17.2,0.7 16.9,4.1 C16.8,5.9 17.4,7.1 18.1,7.8 C17.2009468,8.56491454 16.3649145,9.40094685 15.6,10.3 L15.5,10 C14.9028794,7.99101369 13.0941549,6.58422792 11,6.5 C10.7836298,6.5 10.5730962,6.57017787 10.4,6.7 C10.3,6.8 7.9,8.7 9.2,12.2 C9.65378094,13.671782 10.7605236,14.8523075 12.2,15.4 C11.6,16.6 11.1,18 10.6,19.5 C10.4415079,19.3253544 10.2746456,19.1584921 10.1,19 C9.06689412,17.8810537 7.62262256,17.2311315 6.1,17.2 C5.1,17.2 4.2,17.6 4.1,17.6 C3.91546891,17.7183205 3.77492786,17.8939969 3.7,18.1 C3.7,18.2 2.2,21.1 5.1,24 C6.6,25.4 8.1,25.8 9.1,25.8 L9.4,25.8 L9.3,29.5 L9.3,30.3 C8.14853904,29.6256195 6.83425691,29.2797558 5.5,29.3 C3.96240722,29.2617326 2.46547933,29.7963497 1.3,30.8 C1.0853793,31.0083741 0.9753126,31.3018853 1,31.6 C1,31.8 1.4,35.2 5.3,36.6 C6.0705161,36.8724116 6.88278371,37.0077896 7.7,37 C8.7,37 9.7,36.7 10.3,36.4 C10.800374,38.1436491 11.5052727,39.8219793 12.4,41.4 C11.9011035,41.3530215 11.3988965,41.3530215 10.9,41.4 C6.4,41.8 5.5,45.3 5.4,45.4 C5.3385856,45.5952853 5.3385856,45.8047147 5.4,46 C5.5,46.2 6.9,49.1 10.9,49.1 L11.6,49.1 C13.5244433,49.0535157 15.3097254,48.0864879 16.4,46.5 C17.7,48 19.2,49.2 20.7,50.2 C20.0739332,50.3597869 19.4695299,50.5948326 18.9,50.9 C14.8,53.3 15.5,57 15.5,57.2 L15.8,57.8 C16,57.8 17.3,59 19.5,59 C20.7,59 21.9,58.7 23.1,58 C25.4,56.7 26.2,54.9 26.4,53.6 C28.3,54.5 29.5,54.9 29.6,54.9 C29.6994311,54.9150853 29.8005689,54.9150853 29.9,54.9 C30.4522847,54.9828427 30.9671573,54.6022847 31.05,54.05 C31.1328427,53.4977153 30.7522847,52.9828427 30.2,52.9 L30.2,53 Z M23.2,8.9 C24.2,9.6 24.4,10.5 24.4,10.9 C24.1475595,11.0143168 23.8765377,11.0820722 23.6,11.1 C22.9852211,11.0790187 22.3917516,10.8695589 21.9,10.5 C20.9,9.8 20.7,8.9 20.7,8.5 L20.7,8.4 C21.5,8.2 22.3,8.4 23.1,8.9 L23.2,8.9 Z M19,4.3 C19.1,3 19.8,2.3 20.2,2.2 C20.6,2.5 21.2,3.2 21,4.5 C21,5.1 20.8,5.6 20.5,6 C20.2293401,6.16019075 19.9625954,6.32690619 19.7,6.5 C19.3,6.2 18.9,5.5 19,4.3 Z M15,14.7 C15.6,14.1 16.6,13.9 17.7,14.1 C19.3,14.4 19.9,15.3 20.2,15.8 C19.8,16.2 19.2,16.7 18,16.7 L17.3,16.7 C15.6,16.3 15,15.4 14.8,14.9 C14.8758057,14.8431458 14.9431458,14.7758057 15,14.7 Z M11,11.5 C10.5,10 11,9 11.3,8.5 C11.9,8.7 12.9,9.1 13.5,10.7 C13.8,11.5 13.7,12.2 13.6,12.7 C13.4252551,13.0292326 13.2585392,13.3626645 13.1,13.7 C12.5,13.5 11.6,13 11.1,11.5 L11,11.5 Z M11.6,24 L11.7,23.9 C12,23.2 12.7,22.3 14.2,21.9 L15.4,21.8 C16.5,21.8 17.2,22.3 17.6,22.6 C17.4,23.2 16.8,24.3 15,24.8 L13.8,25 C12.6,25 11.9,24.5 11.6,24.1 L11.6,24 Z M7.6,35 L6,34.7 C4.1,34 3.4,32.7 3.2,31.9 C3.6,31.6 4.4,31.3 5.5,31.3 C6,31.3 6.6,31.3 7.2,31.6 C8.7,32.1 9.4,33 9.6,33.8 L9.7,34.3 C9.4,34.6 8.7,35 7.7,35 L7.6,35 Z M9.6,23.7 L9,23.7 C8.1,23.7 7.2,23.3 6.4,22.5 C5.1,21.2 5.2,20 5.4,19.4 C5.59609541,19.3464245 5.79712851,19.312919 6,19.3 C7,19.3 7.8,19.7 8.6,20.4 C9.4,21.3 9.7,22.1 9.7,22.8 L9.6,23.7 Z M11.6,33.6 C11.6,32.8 11.8,31.6 13.1,30.6 C13.804168,29.9295172 14.7284449,29.538477 15.7,29.5 C16.2,29.5 16.6,29.5 16.8,29.7 C16.9,30.3 16.9,31.7 15.3,33.1 C14.5811481,33.7340959 13.6584904,34.0889642 12.7,34.1 C12.3583171,34.0855525 12.0209563,34.0180803 11.7,33.9 L11.6,33.6 Z M11.3,47.1 C9,47.3 7.9,46.1 7.5,45.5 C7.8,44.9 8.7,43.6 11,43.4 C12.7,43.3 13.8,43.8 14.4,44.4 L14.8,44.9 C14.5,45.6 13.6,46.9 11.3,47.1 Z M16.5,43.8 C16.3988718,43.6675165 16.2988682,43.5341784 16.2,43.4 C15.8,42.7 15.5,41.4 16.3,39.7 C17.3,37.7 18.8,37.3 19.6,37.2 C20,37.8 20.6,39.2 19.7,41.2 C18.7,43.2 17.3,43.7 16.5,43.8 Z M22,56.2 C21.2,56.7 20.3,57 19.5,57 C18.7919693,56.9806016 18.1017862,56.7735466 17.5,56.4 C17.5,55.7 17.7,54 20,52.7 C21.2,52 22.5,51.7 23.6,52.1 L24.5,52.6 C24.5,53.4 24.2,55 22,56.2 Z M25.5,50.8 C25.3661632,50.734345 25.2328261,50.6676764 25.1,50.6 L25.1,50.5 C24.3,49.9 23.4,48.8 23.4,46.8 C23.4,44.3 24.8,43.2 25.4,42.8 C26.1,43.2 27.5,44.3 27.5,46.8 C27.5,49.4 26.1,50.5 25.5,50.8 Z" id="Shape"></path>
        </g>
    </g>
</svg>